G75*
%MOIN*%
%OFA0B0*%
%FSLAX25Y25*%
%IPPOS*%
%LPD*%
%AMOC8*
5,1,8,0,0,1.08239X$1,22.5*
%
%ADD10C,0.12611*%
%ADD11OC8,0.06000*%
%ADD12C,0.06000*%
%ADD13OC8,0.07100*%
%ADD14C,0.07400*%
%ADD15C,0.07800*%
%ADD16C,0.06400*%
%ADD17OC8,0.06800*%
%ADD18C,0.06800*%
%ADD19C,0.06000*%
%ADD20C,0.08400*%
%ADD21C,0.04800*%
D10*
X0015535Y0016000D03*
X0015535Y0302063D03*
X0381598Y0302063D03*
X0381598Y0016000D03*
D11*
X0256598Y0076000D03*
X0236598Y0076000D03*
X0246598Y0101000D03*
X0256598Y0146000D03*
X0236598Y0146000D03*
X0246598Y0176000D03*
X0256598Y0216000D03*
X0236598Y0216000D03*
X0246598Y0246000D03*
X0256598Y0291000D03*
X0236598Y0291000D03*
X0116598Y0251000D03*
X0096598Y0251000D03*
X0056598Y0239937D03*
X0096598Y0181000D03*
X0116598Y0181000D03*
X0116598Y0111000D03*
X0096598Y0111000D03*
X0096598Y0041000D03*
X0116598Y0041000D03*
X0246598Y0031000D03*
D12*
X0246598Y0051000D03*
X0246598Y0121000D03*
X0246598Y0196000D03*
X0246598Y0266000D03*
X0036598Y0239937D03*
D13*
X0041598Y0266000D03*
X0051598Y0266000D03*
X0206598Y0256000D03*
X0206598Y0246000D03*
X0206598Y0191000D03*
X0206598Y0181000D03*
X0206598Y0116000D03*
X0206598Y0106000D03*
X0206598Y0046000D03*
X0206598Y0036000D03*
D14*
X0211598Y0076000D03*
X0171598Y0076000D03*
X0171598Y0146000D03*
X0211598Y0146000D03*
X0211598Y0216000D03*
X0171598Y0216000D03*
X0171598Y0276000D03*
X0211598Y0276000D03*
D15*
X0326598Y0282500D02*
X0326598Y0289500D01*
X0346598Y0289500D02*
X0346598Y0282500D01*
X0346598Y0214500D02*
X0346598Y0207500D01*
X0326598Y0207500D02*
X0326598Y0214500D01*
X0326598Y0134500D02*
X0326598Y0127500D01*
X0346598Y0127500D02*
X0346598Y0134500D01*
X0346598Y0064500D02*
X0346598Y0057500D01*
X0326598Y0057500D02*
X0326598Y0064500D01*
D16*
X0086598Y0023800D02*
X0086598Y0018200D01*
X0076598Y0018200D02*
X0076598Y0023800D01*
X0051598Y0023800D02*
X0051598Y0018200D01*
X0041598Y0018200D02*
X0041598Y0023800D01*
D17*
X0176598Y0021000D03*
X0186598Y0021000D03*
X0196598Y0021000D03*
X0206598Y0021000D03*
X0206598Y0011000D03*
X0196598Y0011000D03*
X0186598Y0011000D03*
X0176598Y0011000D03*
X0336598Y0016000D03*
X0376598Y0151000D03*
X0376598Y0186000D03*
X0206598Y0296000D03*
X0196598Y0296000D03*
X0196598Y0306000D03*
X0206598Y0306000D03*
X0186598Y0306000D03*
X0176598Y0306000D03*
X0176598Y0296000D03*
X0186598Y0296000D03*
X0040535Y0302063D03*
D18*
X0058598Y0291000D02*
X0064598Y0291000D01*
X0148598Y0291000D02*
X0154598Y0291000D01*
X0154598Y0216000D02*
X0148598Y0216000D01*
X0064598Y0216000D02*
X0058598Y0216000D01*
X0058598Y0146000D02*
X0064598Y0146000D01*
X0148598Y0146000D02*
X0154598Y0146000D01*
X0154598Y0076000D02*
X0148598Y0076000D01*
X0064598Y0076000D02*
X0058598Y0076000D01*
D19*
X0143998Y0051000D02*
X0149198Y0051000D01*
X0149198Y0041000D02*
X0143998Y0041000D01*
X0143998Y0031000D02*
X0149198Y0031000D01*
X0149198Y0101000D02*
X0143998Y0101000D01*
X0143998Y0111000D02*
X0149198Y0111000D01*
X0149198Y0121000D02*
X0143998Y0121000D01*
X0143998Y0171000D02*
X0149198Y0171000D01*
X0149198Y0181000D02*
X0143998Y0181000D01*
X0143998Y0191000D02*
X0149198Y0191000D01*
X0149198Y0241000D02*
X0143998Y0241000D01*
X0143998Y0251000D02*
X0149198Y0251000D01*
X0149198Y0261000D02*
X0143998Y0261000D01*
X0271398Y0271000D02*
X0276598Y0271000D01*
X0276598Y0281000D02*
X0271398Y0281000D01*
X0271398Y0291000D02*
X0276598Y0291000D01*
X0276598Y0301000D02*
X0271398Y0301000D01*
X0306598Y0301000D02*
X0311798Y0301000D01*
X0311798Y0291000D02*
X0306598Y0291000D01*
X0306598Y0281000D02*
X0311798Y0281000D01*
X0311798Y0271000D02*
X0306598Y0271000D01*
X0306598Y0226000D02*
X0311798Y0226000D01*
X0311798Y0216000D02*
X0306598Y0216000D01*
X0306598Y0206000D02*
X0311798Y0206000D01*
X0311798Y0196000D02*
X0306598Y0196000D01*
X0276598Y0196000D02*
X0271398Y0196000D01*
X0271398Y0206000D02*
X0276598Y0206000D01*
X0276598Y0216000D02*
X0271398Y0216000D01*
X0271398Y0226000D02*
X0276598Y0226000D01*
X0276598Y0146000D02*
X0271398Y0146000D01*
X0271398Y0136000D02*
X0276598Y0136000D01*
X0276598Y0126000D02*
X0271398Y0126000D01*
X0271398Y0116000D02*
X0276598Y0116000D01*
X0306598Y0116000D02*
X0311798Y0116000D01*
X0311798Y0126000D02*
X0306598Y0126000D01*
X0306598Y0136000D02*
X0311798Y0136000D01*
X0311798Y0146000D02*
X0306598Y0146000D01*
X0306598Y0076000D02*
X0311798Y0076000D01*
X0311798Y0066000D02*
X0306598Y0066000D01*
X0306598Y0056000D02*
X0311798Y0056000D01*
X0311798Y0046000D02*
X0306598Y0046000D01*
X0276598Y0046000D02*
X0271398Y0046000D01*
X0271398Y0056000D02*
X0276598Y0056000D01*
X0276598Y0066000D02*
X0271398Y0066000D01*
X0271398Y0076000D02*
X0276598Y0076000D01*
D20*
X0379098Y0068500D03*
X0379098Y0083500D03*
X0379098Y0098500D03*
X0379098Y0113500D03*
X0379098Y0218500D03*
X0379098Y0233500D03*
X0379098Y0248500D03*
X0379098Y0263500D03*
X0018035Y0258500D03*
X0018035Y0243500D03*
X0018035Y0228500D03*
X0018035Y0188500D03*
X0018035Y0173500D03*
X0018035Y0158500D03*
X0018035Y0143500D03*
X0018035Y0098500D03*
X0018035Y0083500D03*
X0018035Y0068500D03*
X0018035Y0053500D03*
X0018035Y0273500D03*
D21*
X0061598Y0203000D03*
X0073598Y0099000D03*
X0082598Y0090000D03*
M02*
