%
M48
M72
T01C0.02400
T02C0.03200
T03C0.03600
T04C0.04000
T05C0.04331
T06C0.04400
T07C0.11811
%
T01
X82598Y90000
X73598Y99000
X61598Y203000
T02
X96598Y181000
X116598Y181000
X146598Y181000
X146598Y191000
X146598Y171000
X146598Y121000
X146598Y111000
X146598Y101000
X116598Y111000
X96598Y111000
X146598Y51000
X146598Y41000
X146598Y31000
X116598Y41000
X96598Y41000
X206598Y36000
X206598Y46000
X236598Y76000
X256598Y76000
X276598Y76000
X276598Y66000
X276598Y56000
X276598Y46000
X306598Y46000
X306598Y56000
X306598Y66000
X306598Y76000
X326598Y61000
X346598Y61000
X306598Y116000
X306598Y126000
X306598Y136000
X306598Y146000
X326598Y131000
X346598Y131000
X276598Y126000
X276598Y116000
X276598Y136000
X276598Y146000
X256598Y146000
X236598Y146000
X246598Y121000
X246598Y101000
X206598Y106000
X206598Y116000
X246598Y176000
X246598Y196000
X256598Y216000
X276598Y216000
X276598Y226000
X276598Y206000
X276598Y196000
X306598Y196000
X306598Y206000
X306598Y216000
X306598Y226000
X326598Y211000
X346598Y211000
X306598Y271000
X306598Y281000
X306598Y291000
X306598Y301000
X326598Y286000
X346598Y286000
X276598Y281000
X276598Y271000
X276598Y291000
X276598Y301000
X256598Y291000
X236598Y291000
X246598Y266000
X246598Y246000
X236598Y216000
X206598Y191000
X206598Y181000
X146598Y241000
X146598Y251000
X146598Y261000
X116598Y251000
X96598Y251000
X56598Y239937
X36598Y239937
X41598Y266000
X51598Y266000
X206598Y256000
X206598Y246000
X246598Y51000
X246598Y31000
T03
X86598Y21000
X76598Y21000
X51598Y21000
X41598Y21000
T04
X61598Y76000
X151598Y76000
X176598Y21000
X186598Y21000
X196598Y21000
X206598Y21000
X206598Y11000
X196598Y11000
X186598Y11000
X176598Y11000
X336598Y16000
X376598Y151000
X376598Y186000
X206598Y296000
X196598Y296000
X196598Y306000
X206598Y306000
X186598Y306000
X176598Y306000
X176598Y296000
X186598Y296000
X151598Y291000
X61598Y291000
X40535Y302063
X61598Y216000
X61598Y146000
X151598Y146000
X151598Y216000
T05
X18035Y228500
X18035Y243500
X18035Y258500
X18035Y273500
X18035Y188500
X18035Y173500
X18035Y158500
X18035Y143500
X18035Y98500
X18035Y83500
X18035Y68500
X18035Y53500
X379098Y68500
X379098Y83500
X379098Y98500
X379098Y113500
X379098Y218500
X379098Y233500
X379098Y248500
X379098Y263500
T06
X211598Y276000
X171598Y276000
X171598Y216000
X211598Y216000
X211598Y146000
X171598Y146000
X171598Y76000
X211598Y76000
T07
X15535Y16000
X15535Y302063
X381598Y302063
X381598Y16000
M30
